<svg version="1.1" viewBox="0.0 0.0 1361.2257217847769 553.0603674540682" fill="none" stroke="none" stroke-linecap="square" stroke-miterlimit="10" xmlns:xlink="http://www.w3.org/1999/xlink" xmlns="http://www.w3.org/2000/svg"><clipPath id="p.0"><path d="m0 0l1361.2257 0l0 553.06036l-1361.2257 0l0 -553.06036z" clip-rule="nonzero"/></clipPath><g clip-path="url(#p.0)"><path fill="#000000" fill-opacity="0.0" d="m0 0l1361.2257 0l0 553.06036l-1361.2257 0z" fill-rule="evenodd"/><path fill="#000000" fill-opacity="0.0" d="m345.0433 502.9682l0 0c37.72061 -37.72061 38.25647 -98.34198 1.1968384 -135.40158q-33.551178 -33.551178 -67.102356 -67.102356q-34.149597 34.149597 -68.29921 68.299194l0 0c-37.72061 37.720642 -38.256454 98.34198 -1.1968536 135.40158l0 0c37.059616 37.05963 97.68097 36.523743 135.40158 -1.1968384z" fill-rule="evenodd"/><path stroke="#ff008a" stroke-width="4.0" stroke-linejoin="round" stroke-linecap="butt" d="m345.0433 502.9682l0 0c37.72061 -37.72061 38.25647 -98.34198 1.1968384 -135.40158q-33.551178 -33.551178 -67.102356 -67.102356q-34.149597 34.149597 -68.29921 68.299194l0 0c-37.72061 37.720642 -38.256454 98.34198 -1.1968536 135.40158l0 0c37.059616 37.05963 97.68097 36.523743 135.40158 -1.1968384z" fill-rule="evenodd"/><path fill="#000000" fill-opacity="0.0" d="m212.89894 102.39077l0 0c-37.72061 37.72062 -38.256454 98.34196 -1.1968384 135.40158q33.551178 33.551193 67.10234 67.10237q34.149628 -34.149628 68.299225 -68.299225l0 0c37.72061 -37.72061 38.25647 -98.341965 1.1968384 -135.40158l0 0c-37.0596 -37.05961 -97.680954 -36.523758 -135.40157 1.1968536z" fill-rule="evenodd"/><path stroke="#ff008a" stroke-width="4.0" stroke-linejoin="round" stroke-linecap="butt" d="m212.89894 102.39077l0 0c-37.72061 37.72062 -38.256454 98.34196 -1.1968384 135.40158q33.551178 33.551193 67.10234 67.10237q34.149628 -34.149628 68.299225 -68.299225l0 0c37.72061 -37.72061 38.25647 -98.341965 1.1968384 -135.40158l0 0c-37.0596 -37.05961 -97.680954 -36.523758 -135.40157 1.1968536z" fill-rule="evenodd"/><path fill="#000000" fill-opacity="0.0" d="m73.8832 368.4039l0 0c37.72061 37.72061 98.34196 38.25644 135.40158 1.1968384q33.551178 -33.551178 67.10237 -67.102356q-34.149612 -34.149597 -68.299225 -68.29921l0 0c-37.72061 -37.72061 -98.341965 -38.25647 -135.40158 -1.1968536l0 0c-37.059612 37.0596 -36.52376 97.68097 1.1968536 135.40158z" fill-rule="evenodd"/><path stroke="#395539" stroke-width="8.0" stroke-linejoin="round" stroke-linecap="butt" d="m73.8832 368.4039l0 0c37.72061 37.72061 98.34196 38.25644 135.40158 1.1968384q33.551178 -33.551178 67.10237 -67.102356q-34.149612 -34.149597 -68.299225 -68.29921l0 0c-37.72061 -37.72061 -98.341965 -38.25647 -135.40158 -1.1968536l0 0c-37.059612 37.0596 -36.52376 97.68097 1.1968536 135.40158z" fill-rule="evenodd"/><path fill="#000000" fill-opacity="0.0" d="m482.50525 368.4039l0 0c-37.72061 37.72061 -98.34198 38.25644 -135.40158 1.1968384q-33.551178 -33.551178 -67.102356 -67.102356q34.149597 -34.149597 68.299194 -68.29921l0 0c37.720642 -37.72061 98.34198 -38.25647 135.40158 -1.1968536l0 0c37.05963 37.0596 36.523743 97.68097 -1.1968384 135.40158z" fill-rule="evenodd"/><path stroke="#395539" stroke-width="8.0" stroke-linejoin="round" stroke-linecap="butt" d="m482.50525 368.4039l0 0c-37.72061 37.72061 -98.34198 38.25644 -135.40158 1.1968384q-33.551178 -33.551178 -67.102356 -67.102356q34.149597 -34.149597 68.299194 -68.29921l0 0c37.720642 -37.72061 98.34198 -38.25647 135.40158 -1.1968536l0 0c37.05963 37.0596 36.523743 97.68097 -1.1968384 135.40158z" fill-rule="evenodd"/><path fill="#000000" fill-opacity="0.0" d="m571.4278 157.25197l851.0236 0l0 270.80316l-851.0236 0z" fill-rule="evenodd"/><path fill="#000000" d="m599.95905 358.25198l0 -142.78127l16.609375 0l0 142.78127l-16.609375 0zm104.109375 -108.98439q19.03125 0 28.796875 9.32814q9.765625 9.328125 9.765625 29.921875l0 69.734375l-16.015625 0l0 -68.65625q0 -13.375 -6.109375 -20.015625q-6.09375 -6.640625 -18.6875 -6.640625q-17.78125 0 -25.015625 10.0625q-7.21875 10.046875 -7.21875 29.1875l0 56.0625l-16.203125 0l0 -107.031265l13.078125 0l2.453125 15.42189l0.875 0q3.421875 -5.65625 8.6875 -9.515625q5.28125 -3.8593903 11.8125 -5.8593903q6.546875 -2.0 13.78125 -2.0zm119.625 14.64064l-26.65625 0l0 94.34375l-16.21875 0l0 -94.34375l-18.9375 0l0 -7.8125l18.9375 -5.3593903l0 -7.140625q0 -13.46875 4.0 -21.90625q4.015625 -8.453125 11.625 -12.453125q7.625 -4.015625 18.5625 -4.015625q6.140625 0 11.265625 1.078125q5.140625 1.078125 9.046875 2.4375l-4.203125 12.796875q-3.328125 -1.078125 -7.484375 -2.0q-4.140625 -0.9375 -8.4375 -0.9375q-9.28125 0 -13.71875 6.015625q-4.4375 6.0 -4.4375 18.796875l0 7.8125l26.65625 0l0 12.687515zm35.828125 -12.687515l0 107.031265l-16.203125 0l0 -107.031265l16.203125 0zm-7.90625 -40.046875q4.0 0 6.875 2.59375q2.890625 2.59375 2.890625 8.0625q0 5.359375 -2.890625 8.0q-2.875 2.640625 -6.875 2.640625q-4.203125 0 -6.984375 -2.640625q-2.78125 -2.640625 -2.78125 -8.0q0 -5.46875 2.78125 -8.0625q2.78125 -2.59375 6.984375 -2.59375zm92.88281 38.09375q19.03125 0 28.796875 9.32814q9.765625 9.328125 9.765625 29.921875l0 69.734375l-16.015625 0l0 -68.65625q0 -13.375 -6.109375 -20.015625q-6.09375 -6.640625 -18.6875 -6.640625q-17.78125 0 -25.015625 10.0625q-7.21875 10.046875 -7.21875 29.1875l0 56.0625l-16.203125 0l0 -107.031265l13.078125 0l2.453125 15.42189l0.875 0q3.421875 -5.65625 8.6875 -9.515625q5.28125 -3.8593903 11.8125 -5.8593903q6.546875 -2.0 13.78125 -2.0zm88.171936 1.953125l0 107.031265l-16.203186 0l0 -107.031265l16.203186 0zm-7.90625 -40.046875q4.0 0 6.875 2.59375q2.890625 2.59375 2.890625 8.0625q0 5.359375 -2.890625 8.0q-2.875 2.640625 -6.875 2.640625q-4.203186 0 -6.984436 -2.640625q-2.78125 -2.640625 -2.78125 -8.0q0 -5.46875 2.78125 -8.0625q2.78125 -2.59375 6.984436 -2.59375zm76.75391 135.75002q4.015625 0 8.203125 -0.6875q4.203125 -0.6875 6.84375 -1.65625l0 12.59375q-2.828125 1.28125 -7.859375 2.15625q-5.03125 0.875 -9.8125 0.875q-8.5 0 -15.4375 -2.96875q-6.9375 -2.984375 -11.09375 -10.109375q-4.140625 -7.140625 -4.140625 -19.734375l0 -63.484375l-15.234375 0l0 -7.90625l15.328125 -6.3437653l6.453125 -23.25l9.765625 0l0 24.8125l31.34375 0l0 12.687515l-31.34375 0l0 63.0q0 10.046875 4.640625 15.03125q4.640625 4.984375 12.34375 4.984375zm77.92969 -97.656265q13.671875 0 23.4375 6.0625q9.765625 6.0468903 14.9375 16.937515q5.1875 10.890625 5.1875 25.4375l0 10.0625l-73.921875 0q0.28125 18.84375 9.359375 28.703125q9.09375 9.859375 25.59375 9.859375q10.15625 0 17.96875 -1.84375q7.8125 -1.859375 16.21875 -5.46875l0 14.25q-8.109375 3.609375 -16.078125 5.265625q-7.953125 1.671875 -18.796875 1.671875q-15.421875 0 -26.90625 -6.296875q-11.46875 -6.296875 -17.8125 -18.5q-6.34375 -12.21875 -6.34375 -29.890625q0 -17.28125 5.796875 -29.921875q5.8125 -12.65625 16.40625 -19.484375q10.609375 -6.8437653 24.953125 -6.8437653zm-0.1875 13.281265q-12.984375 0 -20.703125 8.5q-7.71875 8.484375 -9.1875 23.71875l56.640625 0q-0.09375 -9.5625 -2.984375 -16.828125q-2.875 -7.28125 -8.734375 -11.328125q-5.859375 -4.0625 -15.03125 -4.0625zm111.22656 -49.125015q12.40625 0 21.96875 3.90625q9.578125 3.90625 15.0 11.484375q5.421875 7.5625 5.421875 18.59375q0 8.687515 -3.765625 15.187515q-3.765625 6.5 -10.109375 11.328125q-6.34375 4.828125 -14.0625 8.640625q9.1875 4.203125 16.546875 9.484375q7.375 5.265625 11.671875 12.390625q4.296875 7.125 4.296875 16.890625q0 12.015625 -5.8125 20.765625q-5.796875 8.734375 -16.25 13.421875q-10.453125 4.6875 -24.515625 4.6875q-15.140625 0 -25.734375 -4.53125q-10.59375 -4.546875 -16.109375 -13.09375q-5.515625 -8.546875 -5.515625 -20.5625q0 -9.859375 4.1875 -17.125q4.203125 -7.28125 11.140625 -12.546875q6.9375 -5.28125 15.140625 -8.90625q-7.125 -3.90625 -13.046875 -8.875q-5.90625 -4.984375 -9.375 -11.671875q-3.453125 -6.6875 -3.453125 -15.57814q0 -10.84375 5.515625 -18.40625q5.515625 -7.578125 15.125 -11.53125q9.625 -3.953125 21.734375 -3.953125zm-31.046875 108.687515q0 10.9375 7.703125 18.03125q7.71875 7.078125 23.34375 7.078125q14.84375 0 22.953125 -7.078125q8.109375 -7.09375 8.109375 -18.609375q0 -7.125 -3.71875 -12.546875q-3.703125 -5.421875 -10.546875 -9.71875q-6.828125 -4.296875 -16.109375 -7.8125l-3.515625 -1.265625q-8.984375 3.703125 -15.28125 8.25q-6.296875 4.53125 -9.625 10.296875q-3.3125 5.765625 -3.3125 13.375zm30.859375 -95.406265q-11.53125 0 -18.859375 5.515625q-7.3125 5.515625 -7.3125 15.875q0 7.421875 3.5625 12.54689q3.5625 5.125 9.703125 8.796875q6.15625 3.65625 13.78125 6.78125q7.421875 -3.125 13.171875 -6.875q5.765625 -3.765625 9.078125 -8.9375q3.328125 -5.1875153 3.328125 -12.406265q0 -10.359375 -7.28125 -15.828125q-7.265625 -5.46875 -19.171875 -5.46875z" fill-rule="nonzero"/></g></svg>